<?xml version="1.0" encoding="iso-8859-1"?>
<!-- Generator: Adobe Illustrator 19.0.0, SVG Export Plug-In . SVG Version: 6.00 Build 0)  -->
<svg version="1.1" id="Capa_1" xmlns="http://www.w3.org/2000/svg" xmlns:xlink="http://www.w3.org/1999/xlink" x="0px" y="0px"
	 viewBox="0 0 480 480" style="enable-background:new 0 0 480 480;" xml:space="preserve">
<path style="fill:#7D8D9C;" d="M152,8h176c17.673,0,32,14.327,32,32v400c0,17.673-14.327,32-32,32H152c-17.673,0-32-14.327-32-32V40
	C120,22.327,134.327,8,152,8z"/>
<path style="fill:#87CEE9;" d="M120,80h240v328H120V80z"/>
<circle style="fill:#FFF69A;" cx="240" cy="256" r="56"/>
<g>
	<path style="fill:#AABECE;" d="M184,40h112v16H184V40z"/>
	<path style="fill:#AABECE;" d="M224,432h32v16h-32V432z"/>
</g>
<g>
	<g>
		<path id="SVGCleanerId_0" style="fill:#E9686A;" d="M144,104h32v16h-32V104z"/>
	</g>
	<g>
		<path id="SVGCleanerId_1" style="fill:#E9686A;" d="M192,104h32v16h-32V104z"/>
	</g>
	<g>
		<path id="SVGCleanerId_2" style="fill:#E9686A;" d="M256,136h16v16h-16V136z"/>
	</g>
	<g>
		<path id="SVGCleanerId_3" style="fill:#E9686A;" d="M288,120h16v32h-16V120z"/>
	</g>
	<g>
		<path id="SVGCleanerId_4" style="fill:#E9686A;" d="M320,104h16v48h-16V104z"/>
	</g>
</g>
<path style="fill:#FFF69A;" d="M224,344h32c17.673,0,32,14.327,32,32v32l0,0h-96l0,0v-32C192,358.327,206.327,344,224,344z"/>
<path style="fill:#2D75BB;" d="M232,272h16v16h-16V272z"/>
<path d="M152,480h176c22.08-0.026,39.974-17.92,40-40V40c-0.026-22.08-17.92-39.974-40-40H152c-22.08,0.026-39.974,17.92-40,40v400
	C112.026,462.08,129.92,479.974,152,480z M280,400h-80v-24c0-13.255,10.745-24,24-24h32c13.255,0,24,10.745,24,24V400z M256,336h-32
	c-22.08,0.026-39.974,17.92-40,40v24h-56V88h224v312h-56v-24C295.974,353.92,278.08,336.026,256,336z M128,40
	c0-13.255,10.745-24,24-24h176c13.255,0,24,10.745,24,24v32H128V40z M352,416v24c0,13.255-10.745,24-24,24H152
	c-13.255,0-24-10.745-24-24v-24H352z"/>
<path d="M184,40h112v16H184V40z"/>
<path d="M224,432h32v16h-32V432z"/>
<path id="SVGCleanerId_0_1_" d="M144,104h32v16h-32V104z"/>
<path id="SVGCleanerId_1_1_" d="M192,104h32v16h-32V104z"/>
<path id="SVGCleanerId_2_1_" d="M256,136h16v16h-16V136z"/>
<path id="SVGCleanerId_3_1_" d="M288,120h16v32h-16V120z"/>
<path id="SVGCleanerId_4_1_" d="M320,104h16v48h-16V104z"/>
<path d="M240,192c-35.346,0-64,28.654-64,64s28.654,64,64,64s64-28.654,64-64C303.96,220.67,275.33,192.04,240,192z M240,304
	c-26.51,0-48-21.49-48-48s21.49-48,48-48s48,21.49,48,48C287.974,282.499,266.499,303.974,240,304z"/>
<path d="M232,272h16v16h-16V272z"/>
<g>
</g>
<g>
</g>
<g>
</g>
<g>
</g>
<g>
</g>
<g>
</g>
<g>
</g>
<g>
</g>
<g>
</g>
<g>
</g>
<g>
</g>
<g>
</g>
<g>
</g>
<g>
</g>
<g>
</g>
</svg>
